<mxfile host="app.diagrams.net" agent="Mozilla/5.0 (Windows NT 10.0; Win64; x64) AppleWebKit/537.36 (KHTML, like Gecko) Chrome/129.0.0.0 Safari/537.36" version="24.7.17">
  <diagram name="Page-1" id="55a83fd1-7818-8e21-69c5-c3457e3827bb">
    <mxGraphModel dx="2159" dy="1410" grid="1" gridSize="10" guides="1" tooltips="1" connect="1" arrows="1" fold="1" page="1" pageScale="1" pageWidth="1100" pageHeight="850" background="none" math="0" shadow="0">
      <root>
        <mxCell id="0" />
        <mxCell id="1" parent="0" />
        <mxCell id="PQpH9kuxpJ0cfOXj1rRD-9" value="" style="rounded=0;orthogonalLoop=1;jettySize=auto;html=1;shape=link;entryX=0.5;entryY=1;entryDx=0;entryDy=0;" edge="1" parent="1" source="69ecfefc5c41e42c-1" target="69ecfefc5c41e42c-2">
          <mxGeometry relative="1" as="geometry">
            <mxPoint x="510" y="375" as="targetPoint" />
          </mxGeometry>
        </mxCell>
        <mxCell id="69ecfefc5c41e42c-1" value="" style="html=1;labelBackgroundColor=#ffffff;image=img/lib/clip_art/networking/Wireless_Router_128x128.png;rounded=1;shadow=0;comic=0;strokeWidth=2;fontSize=22;shape=image;verticalAlign=top;verticalLabelPosition=bottom;" parent="1" vertex="1">
          <mxGeometry x="470" y="470" width="80" height="110" as="geometry" />
        </mxCell>
        <mxCell id="PQpH9kuxpJ0cfOXj1rRD-33" style="rounded=0;orthogonalLoop=1;jettySize=auto;html=1;entryX=0;entryY=0.5;entryDx=0;entryDy=0;fontFamily=Helvetica;fontSize=22;fontColor=default;labelBackgroundColor=#ffffff;shape=link;" edge="1" parent="1" source="69ecfefc5c41e42c-2" target="PQpH9kuxpJ0cfOXj1rRD-10">
          <mxGeometry relative="1" as="geometry" />
        </mxCell>
        <mxCell id="PQpH9kuxpJ0cfOXj1rRD-34" value="Text" style="edgeLabel;html=1;align=center;verticalAlign=middle;resizable=0;points=[];rounded=1;shadow=0;comic=0;strokeColor=default;strokeWidth=2;fontFamily=Helvetica;fontSize=22;fontColor=default;labelBackgroundColor=#ffffff;fillColor=default;" vertex="1" connectable="0" parent="PQpH9kuxpJ0cfOXj1rRD-33">
          <mxGeometry x="-0.0751" y="-3" relative="1" as="geometry">
            <mxPoint as="offset" />
          </mxGeometry>
        </mxCell>
        <mxCell id="PQpH9kuxpJ0cfOXj1rRD-43" style="rounded=0;orthogonalLoop=1;jettySize=auto;html=1;entryX=0;entryY=0;entryDx=0;entryDy=0;fontFamily=Helvetica;fontSize=22;fontColor=default;labelBackgroundColor=#ffffff;shape=link;fillColor=#e1d5e7;strokeColor=#9673a6;" edge="1" parent="1" source="69ecfefc5c41e42c-2" target="69ecfefc5c41e42c-7">
          <mxGeometry relative="1" as="geometry" />
        </mxCell>
        <mxCell id="PQpH9kuxpJ0cfOXj1rRD-44" value="&lt;font style=&quot;font-size: 16px;&quot;&gt;7, send and receive email&lt;/font&gt;" style="edgeLabel;html=1;align=center;verticalAlign=middle;resizable=0;points=[];rounded=1;shadow=0;comic=0;strokeColor=default;strokeWidth=2;fontFamily=Helvetica;fontSize=22;fontColor=default;labelBackgroundColor=#ffffff;fillColor=default;" vertex="1" connectable="0" parent="PQpH9kuxpJ0cfOXj1rRD-43">
          <mxGeometry x="-0.0305" y="-1" relative="1" as="geometry">
            <mxPoint x="61" y="18" as="offset" />
          </mxGeometry>
        </mxCell>
        <mxCell id="69ecfefc5c41e42c-2" value="Internet" style="image;html=1;labelBackgroundColor=#ffffff;image=img/lib/clip_art/networking/Cloud_128x128.png;rounded=1;shadow=0;comic=0;strokeWidth=2;fontSize=22;labelPosition=center;verticalLabelPosition=top;align=center;verticalAlign=bottom;" parent="1" vertex="1">
          <mxGeometry x="440" y="140" width="150" height="90" as="geometry" />
        </mxCell>
        <mxCell id="69ecfefc5c41e42c-19" style="edgeStyle=none;rounded=0;html=1;labelBackgroundColor=none;endArrow=none;strokeWidth=2;fontFamily=Verdana;fontSize=22" parent="1" target="69ecfefc5c41e42c-2" edge="1">
          <mxGeometry relative="1" as="geometry">
            <mxPoint x="510" y="290" as="sourcePoint" />
          </mxGeometry>
        </mxCell>
        <mxCell id="PQpH9kuxpJ0cfOXj1rRD-45" style="edgeStyle=orthogonalEdgeStyle;rounded=0;orthogonalLoop=1;jettySize=auto;html=1;entryX=0.75;entryY=1;entryDx=0;entryDy=0;fontFamily=Helvetica;fontSize=22;fontColor=default;labelBackgroundColor=#ffffff;exitX=0;exitY=0.25;exitDx=0;exitDy=0;" edge="1" parent="1" source="69ecfefc5c41e42c-7">
          <mxGeometry relative="1" as="geometry">
            <mxPoint x="780" y="500" as="sourcePoint" />
            <mxPoint x="530" y="210" as="targetPoint" />
          </mxGeometry>
        </mxCell>
        <mxCell id="PQpH9kuxpJ0cfOXj1rRD-46" value="8.send response action" style="edgeLabel;html=1;align=center;verticalAlign=middle;resizable=0;points=[];rounded=1;shadow=0;comic=0;strokeColor=default;strokeWidth=2;fontFamily=Helvetica;fontSize=16;fontColor=default;labelBackgroundColor=#ffffff;fillColor=default;" vertex="1" connectable="0" parent="PQpH9kuxpJ0cfOXj1rRD-45">
          <mxGeometry x="0.4394" y="-8" relative="1" as="geometry">
            <mxPoint x="72" y="49" as="offset" />
          </mxGeometry>
        </mxCell>
        <mxCell id="69ecfefc5c41e42c-7" value="SOC ANALYST" style="image;html=1;labelBackgroundColor=#ffffff;image=img/lib/clip_art/computers/Workstation_128x128.png;rounded=1;shadow=0;comic=0;strokeWidth=2;fontSize=22" parent="1" vertex="1">
          <mxGeometry x="840" y="485" width="80" height="80" as="geometry" />
        </mxCell>
        <mxCell id="69ecfefc5c41e42c-10" value="windows 10 client&amp;nbsp;&lt;div&gt;Wazuh Agent&lt;/div&gt;" style="image;html=1;labelBackgroundColor=#ffffff;image=img/lib/clip_art/computers/Netbook_128x128.png;rounded=1;shadow=0;comic=0;strokeWidth=2;fontSize=22" parent="1" vertex="1">
          <mxGeometry x="470" y="790" width="80" height="80" as="geometry" />
        </mxCell>
        <mxCell id="69ecfefc5c41e42c-15" value="" style="html=1;fillColor=#CCCCCC;strokeColor=#6881B3;gradientColor=none;gradientDirection=north;strokeWidth=2;html=1;labelBackgroundColor=none;endArrow=none;fontFamily=Verdana;fontSize=22;fontColor=#000000;" parent="1" source="69ecfefc5c41e42c-7" target="69ecfefc5c41e42c-1" edge="1">
          <mxGeometry width="100" height="100" relative="1" as="geometry">
            <mxPoint x="350" y="511.9565217391305" as="sourcePoint" />
            <mxPoint x="500" y="538.0434782608695" as="targetPoint" />
          </mxGeometry>
        </mxCell>
        <mxCell id="PQpH9kuxpJ0cfOXj1rRD-10" value="SHUFFLE" style="image;html=1;labelBackgroundColor=#ffffff;image=img/lib/clip_art/networking/Cloud_128x128.png;rounded=1;shadow=0;comic=0;strokeWidth=2;fontSize=22;labelPosition=center;verticalLabelPosition=top;align=center;verticalAlign=bottom;" vertex="1" parent="1">
          <mxGeometry x="900" y="140" width="80" height="80" as="geometry" />
        </mxCell>
        <mxCell id="PQpH9kuxpJ0cfOXj1rRD-30" style="rounded=0;orthogonalLoop=1;jettySize=auto;html=1;entryX=0;entryY=0.5;entryDx=0;entryDy=0;fontFamily=Helvetica;fontSize=22;fontColor=default;labelBackgroundColor=#ffffff;shape=link;fillColor=#dae8fc;strokeColor=#6c8ebf;" edge="1" parent="1" source="PQpH9kuxpJ0cfOXj1rRD-31" target="69ecfefc5c41e42c-2">
          <mxGeometry relative="1" as="geometry" />
        </mxCell>
        <mxCell id="PQpH9kuxpJ0cfOXj1rRD-35" style="rounded=0;orthogonalLoop=1;jettySize=auto;html=1;entryX=0;entryY=0.5;entryDx=0;entryDy=0;fontFamily=Helvetica;fontSize=22;fontColor=default;labelBackgroundColor=#ffffff;shape=link;fillColor=#d5e8d4;strokeColor=#82b366;" edge="1" parent="1" source="PQpH9kuxpJ0cfOXj1rRD-11" target="PQpH9kuxpJ0cfOXj1rRD-12">
          <mxGeometry relative="1" as="geometry" />
        </mxCell>
        <mxCell id="PQpH9kuxpJ0cfOXj1rRD-36" value="3. receive alerts" style="edgeLabel;html=1;align=center;verticalAlign=middle;resizable=0;points=[];rounded=1;shadow=0;comic=0;strokeColor=default;strokeWidth=2;fontFamily=Helvetica;fontSize=16;fontColor=default;labelBackgroundColor=#ffffff;fillColor=default;" vertex="1" connectable="0" parent="PQpH9kuxpJ0cfOXj1rRD-35">
          <mxGeometry x="-0.0152" relative="1" as="geometry">
            <mxPoint as="offset" />
          </mxGeometry>
        </mxCell>
        <mxCell id="PQpH9kuxpJ0cfOXj1rRD-51" style="rounded=0;orthogonalLoop=1;jettySize=auto;html=1;entryX=0;entryY=0.5;entryDx=0;entryDy=0;fontFamily=Helvetica;fontSize=22;fontColor=default;labelBackgroundColor=#ffffff;shape=link;fillColor=#fff2cc;strokeColor=#d6b656;" edge="1" parent="1" source="PQpH9kuxpJ0cfOXj1rRD-11" target="69ecfefc5c41e42c-10">
          <mxGeometry relative="1" as="geometry" />
        </mxCell>
        <mxCell id="PQpH9kuxpJ0cfOXj1rRD-52" value="9. perform responsive actions" style="edgeLabel;html=1;align=center;verticalAlign=middle;resizable=0;points=[];rounded=1;shadow=0;comic=0;strokeColor=default;strokeWidth=2;fontFamily=Helvetica;fontSize=16;fontColor=default;labelBackgroundColor=#ffffff;fillColor=default;" vertex="1" connectable="0" parent="PQpH9kuxpJ0cfOXj1rRD-51">
          <mxGeometry x="0.0042" y="1" relative="1" as="geometry">
            <mxPoint x="-114" as="offset" />
          </mxGeometry>
        </mxCell>
        <mxCell id="PQpH9kuxpJ0cfOXj1rRD-11" value="WAZUH MANAGER" style="image;html=1;labelBackgroundColor=#ffffff;image=img/lib/clip_art/networking/Cloud_128x128.png;rounded=1;shadow=0;comic=0;strokeWidth=2;fontSize=22;labelPosition=center;verticalLabelPosition=top;align=center;verticalAlign=bottom;" vertex="1" parent="1">
          <mxGeometry x="10" y="110" width="80" height="80" as="geometry" />
        </mxCell>
        <mxCell id="PQpH9kuxpJ0cfOXj1rRD-37" style="rounded=0;orthogonalLoop=1;jettySize=auto;html=1;entryX=0.5;entryY=0;entryDx=0;entryDy=0;fontFamily=Helvetica;fontSize=22;fontColor=default;labelBackgroundColor=#ffffff;fillColor=#f8cecc;strokeColor=#b85450;shape=link;exitX=0.25;exitY=1;exitDx=0;exitDy=0;" edge="1" parent="1" source="PQpH9kuxpJ0cfOXj1rRD-12">
          <mxGeometry relative="1" as="geometry">
            <mxPoint x="480" y="20" as="sourcePoint" />
            <mxPoint x="487.5" y="140" as="targetPoint" />
          </mxGeometry>
        </mxCell>
        <mxCell id="PQpH9kuxpJ0cfOXj1rRD-38" value="&lt;font style=&quot;font-size: 16px;&quot;&gt;&lt;b&gt;4. enrich IoC&#39;s&lt;/b&gt;&lt;/font&gt;" style="edgeLabel;html=1;align=center;verticalAlign=middle;resizable=0;points=[];rounded=1;shadow=0;comic=0;strokeColor=default;strokeWidth=2;fontFamily=Helvetica;fontSize=22;fontColor=default;labelBackgroundColor=#ffffff;fillColor=default;" vertex="1" connectable="0" parent="PQpH9kuxpJ0cfOXj1rRD-37">
          <mxGeometry x="0.0525" y="4" relative="1" as="geometry">
            <mxPoint x="-32" y="1" as="offset" />
          </mxGeometry>
        </mxCell>
        <mxCell id="PQpH9kuxpJ0cfOXj1rRD-41" style="rounded=0;orthogonalLoop=1;jettySize=auto;html=1;entryX=0.75;entryY=0;entryDx=0;entryDy=0;fontFamily=Helvetica;fontSize=22;fontColor=default;labelBackgroundColor=#ffffff;shape=link;fillColor=#e1d5e7;strokeColor=#9673a6;exitX=0.899;exitY=0.878;exitDx=0;exitDy=0;exitPerimeter=0;" edge="1" parent="1" source="PQpH9kuxpJ0cfOXj1rRD-12" target="69ecfefc5c41e42c-2">
          <mxGeometry relative="1" as="geometry">
            <mxPoint x="535.0033333333332" y="30" as="sourcePoint" />
            <mxPoint x="549.67" y="140" as="targetPoint" />
          </mxGeometry>
        </mxCell>
        <mxCell id="PQpH9kuxpJ0cfOXj1rRD-42" value="&lt;font style=&quot;font-size: 16px;&quot;&gt;6.send email&lt;/font&gt;" style="edgeLabel;html=1;align=center;verticalAlign=middle;resizable=0;points=[];rounded=1;shadow=0;comic=0;strokeColor=default;strokeWidth=2;fontFamily=Helvetica;fontSize=22;fontColor=default;labelBackgroundColor=#ffffff;fillColor=default;fontStyle=1" vertex="1" connectable="0" parent="PQpH9kuxpJ0cfOXj1rRD-41">
          <mxGeometry x="0.3714" y="3" relative="1" as="geometry">
            <mxPoint x="43" y="-3" as="offset" />
          </mxGeometry>
        </mxCell>
        <mxCell id="PQpH9kuxpJ0cfOXj1rRD-48" style="edgeStyle=orthogonalEdgeStyle;rounded=0;orthogonalLoop=1;jettySize=auto;html=1;fontFamily=Helvetica;fontSize=22;fontColor=default;labelBackgroundColor=#ffffff;" edge="1" parent="1" source="PQpH9kuxpJ0cfOXj1rRD-12" target="PQpH9kuxpJ0cfOXj1rRD-11">
          <mxGeometry relative="1" as="geometry" />
        </mxCell>
        <mxCell id="PQpH9kuxpJ0cfOXj1rRD-49" value="&lt;font style=&quot;font-size: 13px;&quot;&gt;8. send response action&lt;/font&gt;" style="edgeLabel;html=1;align=center;verticalAlign=middle;resizable=0;points=[];rounded=1;shadow=0;comic=0;strokeColor=default;strokeWidth=2;fontFamily=Helvetica;fontSize=22;fontColor=default;labelBackgroundColor=#ffffff;fillColor=default;" vertex="1" connectable="0" parent="PQpH9kuxpJ0cfOXj1rRD-48">
          <mxGeometry x="0.4128" y="5" relative="1" as="geometry">
            <mxPoint x="65" y="6" as="offset" />
          </mxGeometry>
        </mxCell>
        <mxCell id="PQpH9kuxpJ0cfOXj1rRD-50" value="&lt;font style=&quot;font-size: 13px;&quot;&gt;8. send response action&lt;/font&gt;" style="edgeLabel;html=1;align=center;verticalAlign=middle;resizable=0;points=[];rounded=1;shadow=0;comic=0;strokeColor=default;strokeWidth=2;fontFamily=Helvetica;fontSize=22;fontColor=default;labelBackgroundColor=#ffffff;fillColor=default;" vertex="1" connectable="0" parent="PQpH9kuxpJ0cfOXj1rRD-48">
          <mxGeometry x="0.4128" y="5" relative="1" as="geometry">
            <mxPoint x="495" y="51" as="offset" />
          </mxGeometry>
        </mxCell>
        <mxCell id="PQpH9kuxpJ0cfOXj1rRD-12" value="THE HIVE" style="image;html=1;labelBackgroundColor=#ffffff;image=img/lib/clip_art/networking/Cloud_128x128.png;rounded=1;shadow=0;comic=0;strokeWidth=2;fontSize=22;labelPosition=center;verticalLabelPosition=top;align=center;verticalAlign=bottom;" vertex="1" parent="1">
          <mxGeometry x="490" y="-240" width="80" height="80" as="geometry" />
        </mxCell>
        <mxCell id="PQpH9kuxpJ0cfOXj1rRD-22" value="ROUTER" style="text;html=1;align=center;verticalAlign=middle;whiteSpace=wrap;rounded=0;fontFamily=Helvetica;fontSize=22;fontColor=default;labelBackgroundColor=#ffffff;" vertex="1" parent="1">
          <mxGeometry x="480" y="455" width="60" height="35" as="geometry" />
        </mxCell>
        <mxCell id="PQpH9kuxpJ0cfOXj1rRD-27" style="rounded=0;orthogonalLoop=1;jettySize=auto;html=1;entryX=0.476;entryY=0.905;entryDx=0;entryDy=0;entryPerimeter=0;fontFamily=Helvetica;fontSize=22;fontColor=default;labelBackgroundColor=#ffffff;shape=link;fillColor=#f5f5f5;strokeColor=#666666;" edge="1" parent="1" source="69ecfefc5c41e42c-10" target="69ecfefc5c41e42c-1">
          <mxGeometry relative="1" as="geometry" />
        </mxCell>
        <mxCell id="PQpH9kuxpJ0cfOXj1rRD-28" value="send events" style="edgeLabel;html=1;align=center;verticalAlign=middle;resizable=0;points=[];rounded=1;shadow=0;comic=0;strokeColor=default;strokeWidth=2;fontFamily=Helvetica;fontSize=22;fontColor=default;labelBackgroundColor=#ffffff;fillColor=default;" vertex="1" connectable="0" parent="PQpH9kuxpJ0cfOXj1rRD-27">
          <mxGeometry x="-0.126" y="-15" relative="1" as="geometry">
            <mxPoint as="offset" />
          </mxGeometry>
        </mxCell>
        <mxCell id="PQpH9kuxpJ0cfOXj1rRD-29" value="1. send events" style="edgeLabel;html=1;align=center;verticalAlign=middle;resizable=0;points=[];rounded=1;shadow=0;comic=0;strokeColor=default;strokeWidth=2;fontFamily=Helvetica;fontSize=17;fontColor=default;labelBackgroundColor=#ffffff;fillColor=default;" vertex="1" connectable="0" parent="PQpH9kuxpJ0cfOXj1rRD-27">
          <mxGeometry x="-0.126" y="-15" relative="1" as="geometry">
            <mxPoint x="-4" y="-384" as="offset" />
          </mxGeometry>
        </mxCell>
        <mxCell id="PQpH9kuxpJ0cfOXj1rRD-32" value="" style="rounded=0;orthogonalLoop=1;jettySize=auto;html=1;entryX=0;entryY=0.5;entryDx=0;entryDy=0;fontFamily=Helvetica;fontSize=22;fontColor=default;labelBackgroundColor=#ffffff;shape=link;fillColor=#dae8fc;strokeColor=#6c8ebf;" edge="1" parent="1" source="PQpH9kuxpJ0cfOXj1rRD-11" target="PQpH9kuxpJ0cfOXj1rRD-31">
          <mxGeometry relative="1" as="geometry">
            <mxPoint x="220" y="171" as="sourcePoint" />
            <mxPoint x="470" y="180" as="targetPoint" />
          </mxGeometry>
        </mxCell>
        <mxCell id="PQpH9kuxpJ0cfOXj1rRD-31" value="&lt;p style=&quot;font-size: 15px;&quot;&gt;2. receive events&lt;/p&gt;" style="text;html=1;align=center;verticalAlign=middle;resizable=0;points=[];autosize=1;strokeColor=none;fillColor=none;fontFamily=Helvetica;fontSize=15;fontColor=default;labelBackgroundColor=#ffffff;" vertex="1" parent="1">
          <mxGeometry x="265" y="140" width="140" height="60" as="geometry" />
        </mxCell>
        <mxCell id="PQpH9kuxpJ0cfOXj1rRD-39" style="rounded=0;orthogonalLoop=1;jettySize=auto;html=1;entryX=0.404;entryY=0.028;entryDx=0;entryDy=0;entryPerimeter=0;fontFamily=Helvetica;fontSize=22;fontColor=default;labelBackgroundColor=#ffffff;fillColor=#d5e8d4;strokeColor=#82b366;shape=link;" edge="1" parent="1" source="PQpH9kuxpJ0cfOXj1rRD-12" target="PQpH9kuxpJ0cfOXj1rRD-10">
          <mxGeometry relative="1" as="geometry" />
        </mxCell>
        <mxCell id="PQpH9kuxpJ0cfOXj1rRD-40" value="&lt;font style=&quot;font-size: 16px;&quot;&gt;5. send alerts&lt;/font&gt;" style="edgeLabel;html=1;align=center;verticalAlign=middle;resizable=0;points=[];rounded=1;shadow=0;comic=0;strokeColor=default;strokeWidth=2;fontFamily=Helvetica;fontSize=22;fontColor=default;labelBackgroundColor=#ffffff;fillColor=default;" vertex="1" connectable="0" parent="PQpH9kuxpJ0cfOXj1rRD-39">
          <mxGeometry x="-0.0142" y="1" relative="1" as="geometry">
            <mxPoint x="-1" as="offset" />
          </mxGeometry>
        </mxCell>
        <mxCell id="PQpH9kuxpJ0cfOXj1rRD-47" style="edgeStyle=orthogonalEdgeStyle;rounded=0;orthogonalLoop=1;jettySize=auto;html=1;entryX=0.5;entryY=0.75;entryDx=0;entryDy=0;entryPerimeter=0;fontFamily=Helvetica;fontSize=22;fontColor=default;labelBackgroundColor=#ffffff;" edge="1" parent="1" source="69ecfefc5c41e42c-2" target="PQpH9kuxpJ0cfOXj1rRD-12">
          <mxGeometry relative="1" as="geometry" />
        </mxCell>
        <mxCell id="PQpH9kuxpJ0cfOXj1rRD-54" style="rounded=0;orthogonalLoop=1;jettySize=auto;html=1;fontFamily=Helvetica;fontSize=22;fontColor=default;labelBackgroundColor=#ffffff;" edge="1" parent="1" source="PQpH9kuxpJ0cfOXj1rRD-53">
          <mxGeometry relative="1" as="geometry">
            <mxPoint x="130" y="1130" as="targetPoint" />
          </mxGeometry>
        </mxCell>
        <mxCell id="PQpH9kuxpJ0cfOXj1rRD-53" value="&lt;font style=&quot;font-size: 14px;&quot;&gt;windows 10&lt;/font&gt;&lt;div style=&quot;font-size: 21px;&quot;&gt;&lt;font style=&quot;font-size: 15px;&quot;&gt;send events&lt;/font&gt;&lt;/div&gt;" style="text;html=1;align=center;verticalAlign=middle;resizable=0;points=[];autosize=1;strokeColor=none;fillColor=none;fontFamily=Helvetica;fontSize=22;fontColor=default;labelBackgroundColor=#ffffff;" vertex="1" parent="1">
          <mxGeometry x="-20" y="1098" width="100" height="70" as="geometry" />
        </mxCell>
        <mxCell id="PQpH9kuxpJ0cfOXj1rRD-56" style="rounded=0;orthogonalLoop=1;jettySize=auto;html=1;fontFamily=Helvetica;fontSize=22;fontColor=default;labelBackgroundColor=#ffffff;" edge="1" parent="1" source="PQpH9kuxpJ0cfOXj1rRD-55">
          <mxGeometry relative="1" as="geometry">
            <mxPoint x="400" y="1140" as="targetPoint" />
          </mxGeometry>
        </mxCell>
        <mxCell id="PQpH9kuxpJ0cfOXj1rRD-55" value="wazuh manager&lt;div style=&quot;font-size: 12px;&quot;&gt;trigger alerts &amp;amp; perform actions&lt;/div&gt;" style="text;html=1;align=center;verticalAlign=middle;resizable=0;points=[];autosize=1;strokeColor=none;fillColor=none;fontFamily=Helvetica;fontSize=12;fontColor=default;labelBackgroundColor=#ffffff;" vertex="1" parent="1">
          <mxGeometry x="130" y="1118" width="190" height="40" as="geometry" />
        </mxCell>
        <mxCell id="PQpH9kuxpJ0cfOXj1rRD-59" style="edgeStyle=orthogonalEdgeStyle;rounded=0;orthogonalLoop=1;jettySize=auto;html=1;fontFamily=Helvetica;fontSize=22;fontColor=default;labelBackgroundColor=#ffffff;" edge="1" parent="1" source="PQpH9kuxpJ0cfOXj1rRD-57">
          <mxGeometry relative="1" as="geometry">
            <mxPoint x="560" y="1060" as="targetPoint" />
          </mxGeometry>
        </mxCell>
        <mxCell id="PQpH9kuxpJ0cfOXj1rRD-61" style="edgeStyle=orthogonalEdgeStyle;rounded=0;orthogonalLoop=1;jettySize=auto;html=1;fontFamily=Helvetica;fontSize=22;fontColor=default;labelBackgroundColor=#ffffff;" edge="1" parent="1" source="PQpH9kuxpJ0cfOXj1rRD-57">
          <mxGeometry relative="1" as="geometry">
            <mxPoint x="560" y="1230" as="targetPoint" />
          </mxGeometry>
        </mxCell>
        <mxCell id="PQpH9kuxpJ0cfOXj1rRD-63" style="rounded=0;orthogonalLoop=1;jettySize=auto;html=1;fontFamily=Helvetica;fontSize=22;fontColor=default;labelBackgroundColor=#ffffff;" edge="1" parent="1" source="PQpH9kuxpJ0cfOXj1rRD-57">
          <mxGeometry relative="1" as="geometry">
            <mxPoint x="750" y="1138" as="targetPoint" />
          </mxGeometry>
        </mxCell>
        <mxCell id="PQpH9kuxpJ0cfOXj1rRD-57" value="Shuffle&lt;div style=&quot;font-size: 13px;&quot;&gt;receive Wazuh Alerts&amp;nbsp; and send responsive actions&lt;/div&gt;" style="text;html=1;align=center;verticalAlign=middle;resizable=0;points=[];autosize=1;strokeColor=none;fillColor=none;fontFamily=Helvetica;fontSize=13;fontColor=default;labelBackgroundColor=#ffffff;" vertex="1" parent="1">
          <mxGeometry x="400" y="1118" width="320" height="40" as="geometry" />
        </mxCell>
        <mxCell id="PQpH9kuxpJ0cfOXj1rRD-60" value="OSINT&lt;div style=&quot;font-size: 15px;&quot;&gt;Enrich IoC&#39;s&lt;/div&gt;" style="text;html=1;align=center;verticalAlign=middle;resizable=0;points=[];autosize=1;strokeColor=none;fillColor=none;fontFamily=Helvetica;fontSize=15;fontColor=default;labelBackgroundColor=#ffffff;" vertex="1" parent="1">
          <mxGeometry x="510" y="1000" width="100" height="50" as="geometry" />
        </mxCell>
        <mxCell id="PQpH9kuxpJ0cfOXj1rRD-62" value="Hive&lt;div style=&quot;font-size: 16px;&quot;&gt;create alert in case management&lt;/div&gt;" style="text;html=1;align=center;verticalAlign=middle;resizable=0;points=[];autosize=1;strokeColor=none;fillColor=none;fontFamily=Helvetica;fontSize=16;fontColor=default;labelBackgroundColor=#ffffff;" vertex="1" parent="1">
          <mxGeometry x="430" y="1208" width="260" height="50" as="geometry" />
        </mxCell>
        <mxCell id="PQpH9kuxpJ0cfOXj1rRD-64" value="&lt;div style=&quot;font-size: 13px;&quot;&gt;email&lt;/div&gt;&lt;div style=&quot;font-size: 13px;&quot;&gt;send email and responsive actions&lt;/div&gt;" style="text;html=1;align=center;verticalAlign=middle;resizable=0;points=[];autosize=1;strokeColor=none;fillColor=none;fontFamily=Helvetica;fontSize=13;fontColor=default;labelBackgroundColor=#ffffff;" vertex="1" parent="1">
          <mxGeometry x="760" y="1118" width="220" height="40" as="geometry" />
        </mxCell>
      </root>
    </mxGraphModel>
  </diagram>
</mxfile>
